<?xml version="1.0" encoding="UTF-8" standalone="no"?>
<!DOCTYPE svg PUBLIC "-//W3C//DTD SVG 1.1//EN"
 "http://www.w3.org/Graphics/SVG/1.1/DTD/svg11.dtd">
<!-- Generated by graphviz version 2.38.0 (20140413.2041)
 -->
<!-- Title: models_diagram Pages: 1 -->
<svg width="467pt" height="153pt"
 viewBox="0.00 0.00 467.33 153.00" xmlns="http://www.w3.org/2000/svg" xmlns:xlink="http://www.w3.org/1999/xlink">
<g id="graph0" class="graph" transform="scale(1 1) rotate(0) translate(4 149)">
<title>models_diagram</title>
<polygon fill="none" stroke="none" points="-4,4 -4,-149 463.332,-149 463.332,4 -4,4"/>
<!-- _diagram_info -->
<g id="node1" class="node"><title>_diagram_info</title>
<text text-anchor="start" x="8" y="-130.6" font-family="Times,serif" font-size="13.00">Models diagram</text>
<text text-anchor="start" x="8" y="-117.6" font-family="Times,serif" font-size="13.00">Date: Jun 28 2016 &#45; 20:59</text>
<text text-anchor="start" x="8" y="-104.6" font-family="Times,serif" font-size="13.00">Migration version: 20160629004041</text>
<text text-anchor="start" x="8" y="-91.6" font-family="Times,serif" font-size="13.00">Generated by RailRoady 1.4.2</text>
<text text-anchor="start" x="8" y="-78.6" font-family="Times,serif" font-size="13.00">http://railroady.prestonlee.com</text>
</g>
<!-- Item -->
<g id="node2" class="node"><title>Item</title>
<ellipse fill="none" stroke="black" cx="252.688" cy="-108.5" rx="27" ry="18"/>
<text text-anchor="middle" x="252.688" y="-104.3" font-family="Times,serif" font-size="14.00">Item</text>
</g>
<!-- Operation -->
<g id="node3" class="node"><title>Operation</title>
<ellipse fill="none" stroke="black" cx="292.688" cy="-18" rx="45.4355" ry="18"/>
<text text-anchor="middle" x="292.688" y="-13.8" font-family="Times,serif" font-size="14.00">Operation</text>
</g>
<!-- Item&#45;&gt;Operation -->
<g id="edge1" class="edge"><title>Item&#45;&gt;Operation</title>
<path fill="none" stroke="#bfb22c" d="M263.584,-83.3912C269.22,-70.9227 276.081,-55.742 281.726,-43.2527"/>
<ellipse fill="none" stroke="#bfb22c" cx="261.859" cy="-87.2088" rx="4.00002" ry="4.00002"/>
<ellipse fill="#bfb22c" stroke="#bfb22c" cx="283.414" cy="-39.5174" rx="4.00002" ry="4.00002"/>
</g>
<!-- Record -->
<g id="node4" class="node"><title>Record</title>
<ellipse fill="none" stroke="black" cx="423.688" cy="-108.5" rx="35.7887" ry="18"/>
<text text-anchor="middle" x="423.688" y="-104.3" font-family="Times,serif" font-size="14.00">Record</text>
</g>
<!-- Worker -->
<g id="node5" class="node"><title>Worker</title>
<ellipse fill="none" stroke="black" cx="333.688" cy="-108.5" rx="36.3169" ry="18"/>
<text text-anchor="middle" x="333.688" y="-104.3" font-family="Times,serif" font-size="14.00">Worker</text>
</g>
<!-- Worker&#45;&gt;Operation -->
<g id="edge2" class="edge"><title>Worker&#45;&gt;Operation</title>
<path fill="none" stroke="#0412ba" d="M322.519,-83.3912C317.015,-71.5108 310.37,-57.1681 304.75,-45.0374"/>
<ellipse fill="none" stroke="#0412ba" cx="324.294" cy="-87.2244" rx="4.00002" ry="4.00002"/>
<polygon fill="#0412ba" stroke="#0412ba" points="304.708,-44.946 304.587,-33.9808 302.606,-40.4092 300.504,-35.8724 300.504,-35.8724 300.504,-35.8724 302.606,-40.4092 296.421,-37.7641 304.708,-44.946 304.708,-44.946"/>
</g>
</g>
</svg>
