<?xml version="1.0" encoding="UTF-8" standalone="no"?>
<!DOCTYPE svg PUBLIC "-//W3C//DTD SVG 1.1//EN"
 "http://www.w3.org/Graphics/SVG/1.1/DTD/svg11.dtd">
<!-- Generated by graphviz version 2.38.0 (20140413.2041)
 -->
<!-- Title: models_diagram Pages: 1 -->
<svg width="1014pt" height="260pt"
 viewBox="0.00 0.00 1013.55 260.00" xmlns="http://www.w3.org/2000/svg" xmlns:xlink="http://www.w3.org/1999/xlink">
<g id="graph0" class="graph" transform="scale(1 1) rotate(0) translate(4 256)">
<title>models_diagram</title>
<polygon fill="none" stroke="none" points="-4,4 -4,-256 1009.55,-256 1009.55,4 -4,4"/>
<!-- _diagram_info -->
<g id="node1" class="node"><title>_diagram_info</title>
<text text-anchor="start" x="8" y="-216.6" font-family="Times,serif" font-size="13.00">Models diagram</text>
<text text-anchor="start" x="8" y="-203.6" font-family="Times,serif" font-size="13.00">Date: Jun 28 2016 &#45; 20:58</text>
<text text-anchor="start" x="8" y="-190.6" font-family="Times,serif" font-size="13.00">Migration version: 20160629004041</text>
<text text-anchor="start" x="8" y="-177.6" font-family="Times,serif" font-size="13.00">Generated by RailRoady 1.4.2</text>
<text text-anchor="start" x="8" y="-164.6" font-family="Times,serif" font-size="13.00">http://railroady.prestonlee.com</text>
</g>
<!-- Item -->
<g id="node2" class="node"><title>Item</title>
<path fill="none" stroke="black" d="M237.825,-137.5C237.825,-137.5 461.55,-137.5 461.55,-137.5 467.55,-137.5 473.55,-143.5 473.55,-149.5 473.55,-149.5 473.55,-239.5 473.55,-239.5 473.55,-245.5 467.55,-251.5 461.55,-251.5 461.55,-251.5 237.825,-251.5 237.825,-251.5 231.825,-251.5 225.825,-245.5 225.825,-239.5 225.825,-239.5 225.825,-149.5 225.825,-149.5 225.825,-143.5 231.825,-137.5 237.825,-137.5"/>
<text text-anchor="middle" x="349.688" y="-236.3" font-family="Times,serif" font-size="14.00">Item</text>
<polyline fill="none" stroke="black" points="225.825,-229.5 473.55,-229.5 "/>
<text text-anchor="start" x="233.825" y="-214.3" font-family="Times,serif" font-size="14.00">id :integer</text>
<text text-anchor="start" x="233.825" y="-200.3" font-family="Times,serif" font-size="14.00">size :integer</text>
<text text-anchor="start" x="233.825" y="-186.3" font-family="Times,serif" font-size="14.00">description :text</text>
<text text-anchor="start" x="233.825" y="-172.3" font-family="Times,serif" font-size="14.00">serial :character varying</text>
<text text-anchor="start" x="233.825" y="-158.3" font-family="Times,serif" font-size="14.00">created_at :timestamp without time zone</text>
<text text-anchor="start" x="233.825" y="-144.3" font-family="Times,serif" font-size="14.00">updated_at :timestamp without time zone</text>
</g>
<!-- Operation -->
<g id="node3" class="node"><title>Operation</title>
<path fill="none" stroke="black" d="M370.825,-0.5C370.825,-0.5 594.55,-0.5 594.55,-0.5 600.55,-0.5 606.55,-6.5 606.55,-12.5 606.55,-12.5 606.55,-88.5 606.55,-88.5 606.55,-94.5 600.55,-100.5 594.55,-100.5 594.55,-100.5 370.825,-100.5 370.825,-100.5 364.825,-100.5 358.825,-94.5 358.825,-88.5 358.825,-88.5 358.825,-12.5 358.825,-12.5 358.825,-6.5 364.825,-0.5 370.825,-0.5"/>
<text text-anchor="middle" x="482.688" y="-85.3" font-family="Times,serif" font-size="14.00">Operation</text>
<polyline fill="none" stroke="black" points="358.825,-78.5 606.55,-78.5 "/>
<text text-anchor="start" x="366.825" y="-63.3" font-family="Times,serif" font-size="14.00">id :integer</text>
<text text-anchor="start" x="366.825" y="-49.3" font-family="Times,serif" font-size="14.00">worker_id :integer</text>
<text text-anchor="start" x="366.825" y="-35.3" font-family="Times,serif" font-size="14.00">item_id :integer</text>
<text text-anchor="start" x="366.825" y="-21.3" font-family="Times,serif" font-size="14.00">created_at :timestamp without time zone</text>
<text text-anchor="start" x="366.825" y="-7.3" font-family="Times,serif" font-size="14.00">updated_at :timestamp without time zone</text>
</g>
<!-- Item&#45;&gt;Operation -->
<g id="edge1" class="edge"><title>Item&#45;&gt;Operation</title>
<path fill="none" stroke="#62f2bd" d="M407.867,-131.383C415.511,-123.222 423.304,-114.902 430.833,-106.864"/>
<ellipse fill="none" stroke="#62f2bd" cx="404.987" cy="-134.458" rx="4.00002" ry="4.00002"/>
<ellipse fill="#62f2bd" stroke="#62f2bd" cx="433.798" cy="-103.698" rx="4.00002" ry="4.00002"/>
</g>
<!-- Record -->
<g id="node4" class="node"><title>Record</title>
<path fill="none" stroke="black" d="M769.825,-151.5C769.825,-151.5 993.55,-151.5 993.55,-151.5 999.55,-151.5 1005.55,-157.5 1005.55,-163.5 1005.55,-163.5 1005.55,-225.5 1005.55,-225.5 1005.55,-231.5 999.55,-237.5 993.55,-237.5 993.55,-237.5 769.825,-237.5 769.825,-237.5 763.825,-237.5 757.825,-231.5 757.825,-225.5 757.825,-225.5 757.825,-163.5 757.825,-163.5 757.825,-157.5 763.825,-151.5 769.825,-151.5"/>
<text text-anchor="middle" x="881.688" y="-222.3" font-family="Times,serif" font-size="14.00">Record</text>
<polyline fill="none" stroke="black" points="757.825,-215.5 1005.55,-215.5 "/>
<text text-anchor="start" x="765.825" y="-200.3" font-family="Times,serif" font-size="14.00">id :integer</text>
<text text-anchor="start" x="765.825" y="-186.3" font-family="Times,serif" font-size="14.00">description :text</text>
<text text-anchor="start" x="765.825" y="-172.3" font-family="Times,serif" font-size="14.00">created_at :timestamp without time zone</text>
<text text-anchor="start" x="765.825" y="-158.3" font-family="Times,serif" font-size="14.00">updated_at :timestamp without time zone</text>
</g>
<!-- Worker -->
<g id="node5" class="node"><title>Worker</title>
<path fill="none" stroke="black" d="M503.825,-144.5C503.825,-144.5 727.55,-144.5 727.55,-144.5 733.55,-144.5 739.55,-150.5 739.55,-156.5 739.55,-156.5 739.55,-232.5 739.55,-232.5 739.55,-238.5 733.55,-244.5 727.55,-244.5 727.55,-244.5 503.825,-244.5 503.825,-244.5 497.825,-244.5 491.825,-238.5 491.825,-232.5 491.825,-232.5 491.825,-156.5 491.825,-156.5 491.825,-150.5 497.825,-144.5 503.825,-144.5"/>
<text text-anchor="middle" x="615.688" y="-229.3" font-family="Times,serif" font-size="14.00">Worker</text>
<polyline fill="none" stroke="black" points="491.825,-222.5 739.55,-222.5 "/>
<text text-anchor="start" x="499.825" y="-207.3" font-family="Times,serif" font-size="14.00">id :integer</text>
<text text-anchor="start" x="499.825" y="-193.3" font-family="Times,serif" font-size="14.00">name :character varying</text>
<text text-anchor="start" x="499.825" y="-179.3" font-family="Times,serif" font-size="14.00">email :character varying</text>
<text text-anchor="start" x="499.825" y="-165.3" font-family="Times,serif" font-size="14.00">created_at :timestamp without time zone</text>
<text text-anchor="start" x="499.825" y="-151.3" font-family="Times,serif" font-size="14.00">updated_at :timestamp without time zone</text>
</g>
<!-- Worker&#45;&gt;Operation -->
<g id="edge2" class="edge"><title>Worker&#45;&gt;Operation</title>
<path fill="none" stroke="#1e8c38" d="M563.91,-138.218C554.671,-128.354 545.033,-118.064 535.758,-108.162"/>
<ellipse fill="none" stroke="#1e8c38" cx="566.81" cy="-141.314" rx="4.00002" ry="4.00002"/>
<polygon fill="#1e8c38" stroke="#1e8c38" points="535.586,-107.978 532.034,-97.6029 532.168,-104.328 528.75,-100.679 528.75,-100.679 528.75,-100.679 532.168,-104.328 525.465,-103.755 535.586,-107.978 535.586,-107.978"/>
</g>
</g>
</svg>
